<?xml version="1.0" encoding="utf-8"?>
<!-- Generator: Adobe Illustrator 25.0.0, SVG Export Plug-In . SVG Version: 6.00 Build 0)  -->
<svg version="1.1" id="图层_1" xmlns="http://www.w3.org/2000/svg" xmlns:xlink="http://www.w3.org/1999/xlink" x="0px" y="0px"
	 viewBox="0 0 330 200" style="enable-background:new 0 0 330 200;" xml:space="preserve">
<style type="text/css">
	.st0{fill:none;stroke:#CCCCCC;}
	.st1{display:none;fill:#32313F;enable-background:new    ;}
	.st2{font-family:'ArialMT';}
	.st3{font-size:12px;}
	.st4{fill:#32313F;}
	.st5{clip-path:url(#SVGID_2_);}
	.st6{opacity:0.25;fill:none;stroke:#3C3C3C;enable-background:new    ;}
	.st7{fill:none;stroke:#999999;stroke-width:1.5;}
	.st8{fill:none;stroke:#FF7043;stroke-width:2;}
	.st9{opacity:0.2;}
	.st10{opacity:0.1254;}
	.st11{clip-path:url(#SVGID_4_);}
	.st12{clip-path:url(#SVGID_6_);}
	.st13{fill:none;stroke:#4774B9;stroke-width:2;}
	.st14{clip-path:url(#SVGID_8_);}
</style>
<g>
	<g>
		<g>
			<g>
				<g>
					<line class="st0" x1="53.2" y1="177" x2="48.2" y2="177"/>
					<line class="st0" x1="53.2" y1="162.2" x2="48.2" y2="162.2"/>
					<line class="st0" x1="53.2" y1="147.5" x2="48.2" y2="147.5"/>
					<line class="st0" x1="53.2" y1="132.8" x2="48.2" y2="132.8"/>
					<line class="st0" x1="53.2" y1="118" x2="48.2" y2="118"/>
					<line class="st0" x1="53.2" y1="103.2" x2="48.2" y2="103.2"/>
					<line class="st0" x1="53.2" y1="88.5" x2="48.2" y2="88.5"/>
					<line class="st0" x1="53.2" y1="73.8" x2="48.2" y2="73.8"/>
					<line class="st0" x1="53.2" y1="59" x2="48.2" y2="59"/>
					<line class="st0" x1="53.2" y1="44.2" x2="48.2" y2="44.2"/>
					<line class="st0" x1="53.2" y1="29.5" x2="48.2" y2="29.5"/>
					<line class="st0" x1="53.2" y1="14.8" x2="48.2" y2="14.8"/>
					<line class="st0" x1="53.2" y1="0" x2="48.2" y2="0"/>
				</g>
				<g transform="translate(43.1875, 0)">
					<text transform="matrix(1 0 0 1 -20.6777 180.6)" class="st1 st2 st3">-0.2</text>
					<text transform="matrix(1 0 0 1 -6.6738 165.85)" class="st4 st2 st3">0</text>
					<text transform="matrix(1 0 0 1 -16.6816 151.1)" class="st1 st2 st3">0.2</text>
					<text transform="matrix(1 0 0 1 -16.6816 136.35)" class="st4 st2 st3">0.4</text>
					<text transform="matrix(1 0 0 1 -16.6816 121.6)" class="st1 st2 st3">0.6</text>
					<text transform="matrix(1 0 0 1 -16.6816 106.85)" class="st4 st2 st3">0.8</text>
					<text transform="matrix(1 0 0 1 -6.6738 92.1)" class="st1 st2 st3">1</text>
					<text transform="matrix(1 0 0 1 -16.6816 77.35)" class="st4 st2 st3">1.2</text>
					<text transform="matrix(1 0 0 1 -16.6816 62.6)" class="st1 st2 st3">1.4</text>
					<text transform="matrix(1 0 0 1 -16.6816 47.85)" class="st4 st2 st3">1.6</text>
					<text transform="matrix(1 0 0 1 -16.6816 33.1)" class="st1 st2 st3">1.8</text>
					<text transform="matrix(1 0 0 1 -6.6738 18.35)" class="st4 st2 st3">2</text>
					<text transform="matrix(1 0 0 1 -16.6816 3.6)" class="st1 st2 st3">2.2</text>
				</g>
				<line class="st0" x1="53.2" y1="0" x2="53.2" y2="177"/>
			</g>
		</g>
		<g>
			<defs>
				<rect id="SVGID_1_" x="53" width="276" height="177"/>
			</defs>
			<clipPath id="SVGID_2_">
				<use xlink:href="#SVGID_1_"  style="overflow:visible;"/>
			</clipPath>
			<g transform="translate(53, 0)" class="st5">
				<g>
					<g>
						<g>
							<line class="st6" x1="0" y1="0" x2="0" y2="177"/>
							<line class="st6" x1="30.8" y1="0" x2="30.8" y2="177"/>
							<line class="st6" x1="61.5" y1="0" x2="61.5" y2="177"/>
							<line class="st6" x1="92.3" y1="0" x2="92.3" y2="177"/>
							<line class="st6" x1="123" y1="0" x2="123" y2="177"/>
							<line class="st6" x1="153.8" y1="0" x2="153.8" y2="177"/>
							<line class="st6" x1="184.5" y1="0" x2="184.5" y2="177"/>
							<line class="st6" x1="215.3" y1="0" x2="215.3" y2="177"/>
							<line class="st6" x1="246.1" y1="0" x2="246.1" y2="177"/>
							<line class="st6" x1="276.8" y1="0" x2="276.8" y2="177"/>
						</g>
						<g>
							<line class="st6" x1="0" y1="177" x2="276.8" y2="177"/>
							<line class="st6" x1="0" y1="162.2" x2="276.8" y2="162.2"/>
							<line class="st6" x1="0" y1="147.5" x2="276.8" y2="147.5"/>
							<line class="st6" x1="0" y1="132.8" x2="276.8" y2="132.8"/>
							<line class="st6" x1="0" y1="118" x2="276.8" y2="118"/>
							<line class="st6" x1="0" y1="103.2" x2="276.8" y2="103.2"/>
							<line class="st6" x1="0" y1="88.5" x2="276.8" y2="88.5"/>
							<line class="st6" x1="0" y1="73.8" x2="276.8" y2="73.8"/>
							<line class="st6" x1="0" y1="59" x2="276.8" y2="59"/>
							<line class="st6" x1="0" y1="44.2" x2="276.8" y2="44.2"/>
							<line class="st6" x1="0" y1="29.5" x2="276.8" y2="29.5"/>
							<line class="st6" x1="0" y1="14.8" x2="276.8" y2="14.8"/>
							<line class="st6" x1="0" y1="0" x2="276.8" y2="0"/>
						</g>
					</g>
				</g>
				<g>
					<g>
						<line class="st7" x1="0" y1="162.2" x2="276.8" y2="162.2"/>
					</g>
				</g>
				<g>
					<g>
						<line class="st7" x1="30.8" y1="0" x2="30.8" y2="177"/>
					</g>
				</g>
				<g>
					<g>
						<g>
							<g>
								<g>
									<path class="st8" d="M36.9-1.2l6.2,16.6l6.2,14.7l6.2,11.3l6.2,7l6.2,6.8l6.2,5.8l6.2,4.4l6.2,3.6l6.2,2.6l6.2,3.7l6.2,2.3
										l6.2,1.7l6.2,0.8l6.2,2.1l6.2,2.4l6.2,0.5l6.2,0.9l6.2,0.9l6.2,1.2l6.2,1.5l6.2,2.1l6.2,1.7l6.2,1.3l6.2,1.2l6.2,0.8
										l6.2,1.1l6.2,0.7l6.2,0.9l6.2,0.6l6.2,0.9l6.2,1.5l6.2,0.6l6.2,1.1l6.2,1l6.2,0.8"/>
								</g>
							</g>
						</g>
					</g>
					<g class="st9">
						<g>
							<g>
								<g>
									<path class="st8" d="M30.8-28.3l6.2,48.8l6.2,18.9l6.2,19.5l6.2,9.2l6.2-1l6.2,8.3l6.2,4L80,80l6.2,1.5l6.2-0.4l6.2,8
										l6.2-2.8l6.2-0.5l6.2-2.6l6.2,7.1l6.2,3.9l6.2-6.8l6.2,2.4l6.2,0.8l6.2,2.6l6.2,2.4l6.2,4.7l6.2,0.3l6.2-0.6l6.2,0.7
										l6.2-0.8l6.2,2.2l6.2-0.5l6.2,1.7l6.2-0.6l6.2,2l6.2,3.9l6.2-2.8l6.2,3l6.2,0.7l6.2-0.1"/>
								</g>
							</g>
						</g>
					</g>
				</g>
				<g>
					<g class="st10">
						<span  fill="rgb(0, 0, 0)" stroke="none" stroke-width="1px" style="white-space: normal;">Alt + Scroll to Zoom</span>
					</g>
				</g>
			</g>
		</g>
		<g>
			<defs>
				<rect id="SVGID_3_" x="53" y="177" width="276" height="23"/>
			</defs>
			<clipPath id="SVGID_4_">
				<use xlink:href="#SVGID_3_"  style="overflow:visible;"/>
			</clipPath>
			<g transform="translate(53, 177)" class="st11">
				<g>
					<g>
						<line class="st0" x1="0" y1="0" x2="0" y2="5"/>
						<line class="st0" x1="30.8" y1="0" x2="30.8" y2="5"/>
						<line class="st0" x1="61.5" y1="0" x2="61.5" y2="5"/>
						<line class="st0" x1="92.3" y1="0" x2="92.3" y2="5"/>
						<line class="st0" x1="123" y1="0" x2="123" y2="5"/>
						<line class="st0" x1="153.8" y1="0" x2="153.8" y2="5"/>
						<line class="st0" x1="184.5" y1="0" x2="184.5" y2="5"/>
						<line class="st0" x1="215.3" y1="0" x2="215.3" y2="5"/>
						<line class="st0" x1="246.1" y1="0" x2="246.1" y2="5"/>
						<line class="st0" x1="276.8" y1="0" x2="276.8" y2="5"/>
					</g>
					<g transform="translate(0, 8)">
						<text transform="matrix(1 0 0 1 -5.335 11.4)" class="st1 st2 st3">-5</text>
						<text transform="matrix(1 0 0 1 27.42 11.4)" class="st4 st2 st3">0</text>
						<text transform="matrix(1 0 0 1 58.177 11.4)" class="st4 st2 st3">5</text>
						<text transform="matrix(1 0 0 1 85.597 11.4)" class="st4 st2 st3">10</text>
						<text transform="matrix(1 0 0 1 116.3539 11.4)" class="st4 st2 st3">15</text>
						<text transform="matrix(1 0 0 1 147.1109 11.4)" class="st4 st2 st3">20</text>
						<text transform="matrix(1 0 0 1 177.8678 11.4)" class="st4 st2 st3">25</text>
						<text transform="matrix(1 0 0 1 208.6248 11.4)" class="st4 st2 st3">30</text>
						<text transform="matrix(1 0 0 1 239.3817 11.4)" class="st4 st2 st3">35</text>
						<text transform="matrix(1 0 0 1 270.1387 11.4)" class="st1 st2 st3">40</text>
					</g>
					<line class="st0" x1="0" y1="0" x2="276.8" y2="0"/>
				</g>
			</g>
		</g>
	</g>
</g>
<g>
	<g>
		<g>
			<g>
				<g>
					<line class="st0" x1="53.2" y1="177" x2="48.2" y2="177"/>
					<line class="st0" x1="53.2" y1="162.2" x2="48.2" y2="162.2"/>
					<line class="st0" x1="53.2" y1="147.5" x2="48.2" y2="147.5"/>
					<line class="st0" x1="53.2" y1="132.8" x2="48.2" y2="132.8"/>
					<line class="st0" x1="53.2" y1="118" x2="48.2" y2="118"/>
					<line class="st0" x1="53.2" y1="103.2" x2="48.2" y2="103.2"/>
					<line class="st0" x1="53.2" y1="88.5" x2="48.2" y2="88.5"/>
					<line class="st0" x1="53.2" y1="73.8" x2="48.2" y2="73.8"/>
					<line class="st0" x1="53.2" y1="59" x2="48.2" y2="59"/>
					<line class="st0" x1="53.2" y1="44.2" x2="48.2" y2="44.2"/>
					<line class="st0" x1="53.2" y1="29.5" x2="48.2" y2="29.5"/>
					<line class="st0" x1="53.2" y1="14.8" x2="48.2" y2="14.8"/>
					<line class="st0" x1="53.2" y1="0" x2="48.2" y2="0"/>
				</g>
				<g transform="translate(43.1875, 0)">
					<text transform="matrix(1 0 0 1 -20.6777 180.6)" class="st1 st2 st3">-0.2</text>
					<text transform="matrix(1 0 0 1 -6.6738 165.85)" class="st4 st2 st3">0</text>
					<text transform="matrix(1 0 0 1 -16.6816 151.1)" class="st1 st2 st3">0.2</text>
					<text transform="matrix(1 0 0 1 -16.6816 136.35)" class="st4 st2 st3">0.4</text>
					<text transform="matrix(1 0 0 1 -16.6816 121.6)" class="st1 st2 st3">0.6</text>
					<text transform="matrix(1 0 0 1 -16.6816 106.85)" class="st4 st2 st3">0.8</text>
					<text transform="matrix(1 0 0 1 -6.6738 92.1)" class="st1 st2 st3">1</text>
					<text transform="matrix(1 0 0 1 -16.6816 77.35)" class="st4 st2 st3">1.2</text>
					<text transform="matrix(1 0 0 1 -16.6816 62.6)" class="st1 st2 st3">1.4</text>
					<text transform="matrix(1 0 0 1 -16.6816 47.85)" class="st4 st2 st3">1.6</text>
					<text transform="matrix(1 0 0 1 -16.6816 33.1)" class="st1 st2 st3">1.8</text>
					<text transform="matrix(1 0 0 1 -6.6738 18.35)" class="st4 st2 st3">2</text>
					<text transform="matrix(1 0 0 1 -16.6816 3.6)" class="st1 st2 st3">2.2</text>
				</g>
				<line class="st0" x1="53.2" y1="0" x2="53.2" y2="177"/>
			</g>
		</g>
		<g>
			<defs>
				<rect id="SVGID_5_" x="53" width="276" height="177"/>
			</defs>
			<clipPath id="SVGID_6_">
				<use xlink:href="#SVGID_5_"  style="overflow:visible;"/>
			</clipPath>
			<g transform="translate(53, 0)" class="st12">
				<g>
					<g>
						<g>
							<line class="st6" x1="0" y1="0" x2="0" y2="177"/>
							<line class="st6" x1="30.8" y1="0" x2="30.8" y2="177"/>
							<line class="st6" x1="61.5" y1="0" x2="61.5" y2="177"/>
							<line class="st6" x1="92.3" y1="0" x2="92.3" y2="177"/>
							<line class="st6" x1="123" y1="0" x2="123" y2="177"/>
							<line class="st6" x1="153.8" y1="0" x2="153.8" y2="177"/>
							<line class="st6" x1="184.5" y1="0" x2="184.5" y2="177"/>
							<line class="st6" x1="215.3" y1="0" x2="215.3" y2="177"/>
							<line class="st6" x1="246.1" y1="0" x2="246.1" y2="177"/>
							<line class="st6" x1="276.8" y1="0" x2="276.8" y2="177"/>
						</g>
						<g>
							<line class="st6" x1="0" y1="177" x2="276.8" y2="177"/>
							<line class="st6" x1="0" y1="162.2" x2="276.8" y2="162.2"/>
							<line class="st6" x1="0" y1="147.5" x2="276.8" y2="147.5"/>
							<line class="st6" x1="0" y1="132.8" x2="276.8" y2="132.8"/>
							<line class="st6" x1="0" y1="118" x2="276.8" y2="118"/>
							<line class="st6" x1="0" y1="103.2" x2="276.8" y2="103.2"/>
							<line class="st6" x1="0" y1="88.5" x2="276.8" y2="88.5"/>
							<line class="st6" x1="0" y1="73.8" x2="276.8" y2="73.8"/>
							<line class="st6" x1="0" y1="59" x2="276.8" y2="59"/>
							<line class="st6" x1="0" y1="44.2" x2="276.8" y2="44.2"/>
							<line class="st6" x1="0" y1="29.5" x2="276.8" y2="29.5"/>
							<line class="st6" x1="0" y1="14.8" x2="276.8" y2="14.8"/>
							<line class="st6" x1="0" y1="0" x2="276.8" y2="0"/>
						</g>
					</g>
				</g>
				<g>
					<g>
						<line class="st7" x1="0" y1="162.2" x2="276.8" y2="162.2"/>
					</g>
				</g>
				<g>
					<g>
						<line class="st7" x1="30.8" y1="0" x2="30.8" y2="177"/>
					</g>
				</g>
				<g>
					<g>
						<g>
							<g>
								<g>
									<path class="st13" d="M30.8,3.1l6.2,8.3l6.2,10.7l6.2,12l6.2,9.1l6.2,7.3l6.2,9l6.2,3.7l6.2,4.8l6.2,3.4l6.2,5.5l6.2,2
										l6.2,2.1l6.2,4.3l6.2-0.7L123,88l6.2,1.4l6.2,0l6.2-1l6.2-0.8l6.2,3.8l6.2,1.3l6.2-0.1l6.2,3.7l6.2,1.3l6.2,0.1l6.2-0.7
										l6.2-0.9l6.2,5.9l6.2-2.2l6.2,3.8l6.2-0.6l6.2,2.7l6.2-1.2l6.2,1l6.2,0.9l6.2-0.6"/>
								</g>
							</g>
						</g>
					</g>
					<g class="st9">
						<g>
							<g>
								<g>
									<path class="st13" d="M30.8,3.1L36.9,18l6.2,19.6l6.2,20.1l6.2,7.2l6.2,5.5l6.2,15.9l6.2-11l6.2,8.7l6.2-0.8l6.2,13.7
										l6.2-10.4l6.2,2.6l6.2,12.9l6.2-19.7l6.2,18.1l6.2-5.6l6.2-5.4l6.2-4.8l6.2-0.2l6.2,21.9l6.2-8.2l6.2-5.6l6.2,18.8l6.2-8.2
										l6.2-4.6l6.2-4.1l6.2-1.7l6.2,32.9l6.2-34.3l6.2,27.5l6.2-18l6.2,15.7l6.2-16.5l6.2,9.6l6.2,0.6l6.2-6.7"/>
								</g>
							</g>
						</g>
					</g>
				</g>
			</g>
		</g>
		<g>
			<defs>
				<rect id="SVGID_7_" x="53" y="177" width="276" height="23"/>
			</defs>
			<clipPath id="SVGID_8_">
				<use xlink:href="#SVGID_7_"  style="overflow:visible;"/>
			</clipPath>
			<g transform="translate(53, 177)" class="st14">
				<g>
					<g>
						<line class="st0" x1="0" y1="0" x2="0" y2="5"/>
						<line class="st0" x1="30.8" y1="0" x2="30.8" y2="5"/>
						<line class="st0" x1="61.5" y1="0" x2="61.5" y2="5"/>
						<line class="st0" x1="92.3" y1="0" x2="92.3" y2="5"/>
						<line class="st0" x1="123" y1="0" x2="123" y2="5"/>
						<line class="st0" x1="153.8" y1="0" x2="153.8" y2="5"/>
						<line class="st0" x1="184.5" y1="0" x2="184.5" y2="5"/>
						<line class="st0" x1="215.3" y1="0" x2="215.3" y2="5"/>
						<line class="st0" x1="246.1" y1="0" x2="246.1" y2="5"/>
						<line class="st0" x1="276.8" y1="0" x2="276.8" y2="5"/>
					</g>
					<g transform="translate(0, 8)">
						<text transform="matrix(1 0 0 1 -5.335 11.4)" class="st1 st2 st3">-5</text>
						<text transform="matrix(1 0 0 1 27.42 11.4)" class="st4 st2 st3">0</text>
						<text transform="matrix(1 0 0 1 58.177 11.4)" class="st4 st2 st3">5</text>
						<text transform="matrix(1 0 0 1 85.597 11.4)" class="st4 st2 st3">10</text>
						<text transform="matrix(1 0 0 1 116.3539 11.4)" class="st4 st2 st3">15</text>
						<text transform="matrix(1 0 0 1 147.1109 11.4)" class="st4 st2 st3">20</text>
						<text transform="matrix(1 0 0 1 177.8678 11.4)" class="st4 st2 st3">25</text>
						<text transform="matrix(1 0 0 1 208.6248 11.4)" class="st4 st2 st3">30</text>
						<text transform="matrix(1 0 0 1 239.3817 11.4)" class="st4 st2 st3">35</text>
						<text transform="matrix(1 0 0 1 270.1387 11.4)" class="st1 st2 st3">40</text>
					</g>
					<line class="st0" x1="0" y1="0" x2="276.8" y2="0"/>
				</g>
			</g>
		</g>
	</g>
</g>
</svg>
