<?xml version="1.0" encoding="utf-8"?>
<!-- Generator: Adobe Illustrator 25.0.0, SVG Export Plug-In . SVG Version: 6.00 Build 0)  -->
<svg version="1.1" id="图层_1" xmlns="http://www.w3.org/2000/svg" xmlns:xlink="http://www.w3.org/1999/xlink" x="0px" y="0px"
	 viewBox="0 0 330 200" style="enable-background:new 0 0 330 200;" xml:space="preserve">
<style type="text/css">
	.st0{fill:none;stroke:#CCCCCC;}
	.st1{display:none;fill:#32313F;enable-background:new    ;}
	.st2{font-family:'ArialMT';}
	.st3{font-size:12px;}
	.st4{fill:#32313F;}
	.st5{clip-path:url(#SVGID_2_);}
	.st6{opacity:0.25;fill:none;stroke:#3C3C3C;enable-background:new    ;}
	.st7{fill:none;stroke:#999999;stroke-width:1.5;}
	.st8{fill:none;stroke:#FF7043;stroke-width:2;}
	.st9{opacity:0.2;}
	.st10{opacity:0.7981;}
	.st11{clip-path:url(#SVGID_4_);}
	.st12{clip-path:url(#SVGID_6_);}
	.st13{fill:none;stroke:#4774B9;stroke-width:2;}
	.st14{clip-path:url(#SVGID_8_);}
</style>
<g>
	<g>
		<g>
			<g>
				<g>
					<line class="st0" x1="64" y1="177" x2="59" y2="177"/>
					<line class="st0" x1="64" y1="162.2" x2="59" y2="162.2"/>
					<line class="st0" x1="64" y1="147.5" x2="59" y2="147.5"/>
					<line class="st0" x1="64" y1="132.8" x2="59" y2="132.8"/>
					<line class="st0" x1="64" y1="118" x2="59" y2="118"/>
					<line class="st0" x1="64" y1="103.2" x2="59" y2="103.2"/>
					<line class="st0" x1="64" y1="88.5" x2="59" y2="88.5"/>
					<line class="st0" x1="64" y1="73.8" x2="59" y2="73.8"/>
					<line class="st0" x1="64" y1="59" x2="59" y2="59"/>
					<line class="st0" x1="64" y1="44.2" x2="59" y2="44.2"/>
					<line class="st0" x1="64" y1="29.5" x2="59" y2="29.5"/>
					<line class="st0" x1="64" y1="14.8" x2="59" y2="14.8"/>
					<line class="st0" x1="64" y1="0" x2="59" y2="0"/>
				</g>
				<g transform="translate(53.984375, 0)">
					<text transform="matrix(1 0 0 1 -27.3516 180.6)" class="st1 st2 st3">-0.05</text>
					<text transform="matrix(1 0 0 1 -6.6738 165.85)" class="st4 st2 st3">0</text>
					<text transform="matrix(1 0 0 1 -23.3555 151.1)" class="st1 st2 st3">0.05</text>
					<text transform="matrix(1 0 0 1 -16.6816 136.35)" class="st4 st2 st3">0.1</text>
					<text transform="matrix(1 0 0 1 -23.3555 121.6)" class="st1 st2 st3">0.15</text>
					<text transform="matrix(1 0 0 1 -16.6816 106.85)" class="st4 st2 st3">0.2</text>
					<text transform="matrix(1 0 0 1 -23.3555 92.1)" class="st1 st2 st3">0.25</text>
					<text transform="matrix(1 0 0 1 -16.6816 77.35)" class="st4 st2 st3">0.3</text>
					<text transform="matrix(1 0 0 1 -23.3555 62.6)" class="st1 st2 st3">0.35</text>
					<text transform="matrix(1 0 0 1 -16.6816 47.85)" class="st4 st2 st3">0.4</text>
					<text transform="matrix(1 0 0 1 -23.3555 33.1)" class="st1 st2 st3">0.45</text>
					<text transform="matrix(1 0 0 1 -16.6816 18.35)" class="st4 st2 st3">0.5</text>
					<text transform="matrix(1 0 0 1 -23.3555 3.6)" class="st1 st2 st3">0.55</text>
				</g>
				<line class="st0" x1="64" y1="0" x2="64" y2="177"/>
			</g>
		</g>
		<g>
			<defs>
				<rect id="SVGID_1_" x="63" width="266" height="177"/>
			</defs>
			<clipPath id="SVGID_2_">
				<use xlink:href="#SVGID_1_"  style="overflow:visible;"/>
			</clipPath>
			<g transform="translate(63, 0)" class="st5">
				<g>
					<g>
						<g>
							<line class="st6" x1="0" y1="0" x2="0" y2="177"/>
							<line class="st6" x1="29.6" y1="0" x2="29.6" y2="177"/>
							<line class="st6" x1="59.1" y1="0" x2="59.1" y2="177"/>
							<line class="st6" x1="88.7" y1="0" x2="88.7" y2="177"/>
							<line class="st6" x1="118.2" y1="0" x2="118.2" y2="177"/>
							<line class="st6" x1="147.8" y1="0" x2="147.8" y2="177"/>
							<line class="st6" x1="177.3" y1="0" x2="177.3" y2="177"/>
							<line class="st6" x1="206.9" y1="0" x2="206.9" y2="177"/>
							<line class="st6" x1="236.5" y1="0" x2="236.5" y2="177"/>
							<line class="st6" x1="266" y1="0" x2="266" y2="177"/>
						</g>
						<g>
							<line class="st6" x1="0" y1="177" x2="266" y2="177"/>
							<line class="st6" x1="0" y1="162.2" x2="266" y2="162.2"/>
							<line class="st6" x1="0" y1="147.5" x2="266" y2="147.5"/>
							<line class="st6" x1="0" y1="132.8" x2="266" y2="132.8"/>
							<line class="st6" x1="0" y1="118" x2="266" y2="118"/>
							<line class="st6" x1="0" y1="103.2" x2="266" y2="103.2"/>
							<line class="st6" x1="0" y1="88.5" x2="266" y2="88.5"/>
							<line class="st6" x1="0" y1="73.8" x2="266" y2="73.8"/>
							<line class="st6" x1="0" y1="59" x2="266" y2="59"/>
							<line class="st6" x1="0" y1="44.2" x2="266" y2="44.2"/>
							<line class="st6" x1="0" y1="29.5" x2="266" y2="29.5"/>
							<line class="st6" x1="0" y1="14.8" x2="266" y2="14.8"/>
							<line class="st6" x1="0" y1="0" x2="266" y2="0"/>
						</g>
					</g>
				</g>
				<g>
					<g>
						<line class="st7" x1="0" y1="162.2" x2="266" y2="162.2"/>
					</g>
				</g>
				<g>
					<g>
						<line class="st7" x1="29.6" y1="0" x2="29.6" y2="177"/>
					</g>
				</g>
				<g>
					<g>
						<g>
							<g>
								<g>
									<path class="st8" d="M29.6-14.4l5.9,15.1l5.9,17.5l5.9,16.3l5.9,12.2l5.9,8.5L65,62l5.9,5.7l5.9,4l5.9,2.9l5.9,2.2l5.9,2.9
										l5.9,1.7l5.9,1.2l5.9,0.5l5.9,2.3l5.9,1.8l5.9,0.2l5.9,0.9l5.9,0.3l5.9,0.8l5.9,1.2l5.9,1.4l5.9,0.7l5.9,0.6l5.9,0.2
										l5.9,0.3l5.9,0.4l5.9,0.7l5.9,0.9l5.9,0.2l5.9,0.7l5.9,0.8l5.9,0.9l5.9,0.3l5.9,0.9l5.9,0.7"/>
								</g>
							</g>
						</g>
					</g>
					<g class="st9">
						<g>
							<g>
								<g>
									<path class="st8" d="M29.6-14.4l5.9,27.2l5.9,30.6l5.9,22.9l5.9,9.1l5.9,2.7L65,82l5.9,3.6l5.9-0.8l5.9-0.1l5.9-0.1
										l5.9,5.8l5.9-2.6l5.9-0.7l5.9-2.1l5.9,9.3l5.9,0.1l5.9-6.3l5.9,3.7l5.9-1.9l5.9,2.5l5.9,3l5.9,2.2l5.9-2l5.9,0l5.9-1.3
										l5.9,0.7l5.9,0.7l5.9,1.9l5.9,1.8l5.9-2.4l5.9,2.7l5.9,1l5.9,1.2l5.9-2l5.9,3.5l5.9-0.1"/>
								</g>
							</g>
						</g>
					</g>
				</g>
				<g>
					<g class="st10">
						<span  fill="rgb(0, 0, 0)" stroke="none" stroke-width="1px" style="white-space: normal;">Alt + Scroll to Zoom</span>
					</g>
				</g>
			</g>
		</g>
		<g>
			<defs>
				<rect id="SVGID_3_" x="63" y="177" width="266" height="23"/>
			</defs>
			<clipPath id="SVGID_4_">
				<use xlink:href="#SVGID_3_"  style="overflow:visible;"/>
			</clipPath>
			<g transform="translate(63, 177)" class="st11">
				<g>
					<g>
						<line class="st0" x1="0" y1="0" x2="0" y2="5"/>
						<line class="st0" x1="29.6" y1="0" x2="29.6" y2="5"/>
						<line class="st0" x1="59.1" y1="0" x2="59.1" y2="5"/>
						<line class="st0" x1="88.7" y1="0" x2="88.7" y2="5"/>
						<line class="st0" x1="118.2" y1="0" x2="118.2" y2="5"/>
						<line class="st0" x1="147.8" y1="0" x2="147.8" y2="5"/>
						<line class="st0" x1="177.3" y1="0" x2="177.3" y2="5"/>
						<line class="st0" x1="206.9" y1="0" x2="206.9" y2="5"/>
						<line class="st0" x1="236.5" y1="0" x2="236.5" y2="5"/>
						<line class="st0" x1="266" y1="0" x2="266" y2="5"/>
					</g>
					<g transform="translate(0, 8)">
						<text transform="matrix(1 0 0 1 -5.335 11.4)" class="st1 st2 st3">-5</text>
						<text transform="matrix(1 0 0 1 26.2204 11.4)" class="st4 st2 st3">0</text>
						<text transform="matrix(1 0 0 1 55.7776 11.4)" class="st4 st2 st3">5</text>
						<text transform="matrix(1 0 0 1 81.998 11.4)" class="st4 st2 st3">10</text>
						<text transform="matrix(1 0 0 1 111.5553 11.4)" class="st4 st2 st3">15</text>
						<text transform="matrix(1 0 0 1 141.1126 11.4)" class="st4 st2 st3">20</text>
						<text transform="matrix(1 0 0 1 170.6699 11.4)" class="st4 st2 st3">25</text>
						<text transform="matrix(1 0 0 1 200.2273 11.4)" class="st4 st2 st3">30</text>
						<text transform="matrix(1 0 0 1 229.7844 11.4)" class="st4 st2 st3">35</text>
						<text transform="matrix(1 0 0 1 259.3418 11.4)" class="st1 st2 st3">40</text>
					</g>
					<line class="st0" x1="0" y1="0" x2="266" y2="0"/>
				</g>
			</g>
		</g>
	</g>
</g>
<g>
	<g>
		<g>
			<g>
				<g>
					<line class="st0" x1="63.5" y1="177" x2="58.5" y2="177"/>
					<line class="st0" x1="63.5" y1="162.2" x2="58.5" y2="162.2"/>
					<line class="st0" x1="63.5" y1="147.5" x2="58.5" y2="147.5"/>
					<line class="st0" x1="63.5" y1="132.8" x2="58.5" y2="132.8"/>
					<line class="st0" x1="63.5" y1="118" x2="58.5" y2="118"/>
					<line class="st0" x1="63.5" y1="103.2" x2="58.5" y2="103.2"/>
					<line class="st0" x1="63.5" y1="88.5" x2="58.5" y2="88.5"/>
					<line class="st0" x1="63.5" y1="73.8" x2="58.5" y2="73.8"/>
					<line class="st0" x1="63.5" y1="59" x2="58.5" y2="59"/>
					<line class="st0" x1="63.5" y1="44.2" x2="58.5" y2="44.2"/>
					<line class="st0" x1="63.5" y1="29.5" x2="58.5" y2="29.5"/>
					<line class="st0" x1="63.5" y1="14.8" x2="58.5" y2="14.8"/>
					<line class="st0" x1="63.5" y1="0" x2="58.5" y2="0"/>
				</g>
				<g transform="translate(53.984375, 0)">
					<text transform="matrix(1 0 0 1 -27.803 180.6)" class="st1 st2 st3">-0.05</text>
					<text transform="matrix(1 0 0 1 -7.1252 165.85)" class="st4 st2 st3">0</text>
					<text transform="matrix(1 0 0 1 -23.8069 151.1)" class="st1 st2 st3">0.05</text>
					<text transform="matrix(1 0 0 1 -17.1331 136.35)" class="st4 st2 st3">0.1</text>
					<text transform="matrix(1 0 0 1 -23.8069 121.6)" class="st1 st2 st3">0.15</text>
					<text transform="matrix(1 0 0 1 -17.1331 106.85)" class="st4 st2 st3">0.2</text>
					<text transform="matrix(1 0 0 1 -23.8069 92.1)" class="st1 st2 st3">0.25</text>
					<text transform="matrix(1 0 0 1 -17.1331 77.35)" class="st4 st2 st3">0.3</text>
					<text transform="matrix(1 0 0 1 -23.8069 62.6)" class="st1 st2 st3">0.35</text>
					<text transform="matrix(1 0 0 1 -17.1331 47.85)" class="st4 st2 st3">0.4</text>
					<text transform="matrix(1 0 0 1 -23.8069 33.1)" class="st1 st2 st3">0.45</text>
					<text transform="matrix(1 0 0 1 -17.1331 18.35)" class="st4 st2 st3">0.5</text>
					<text transform="matrix(1 0 0 1 -23.8069 3.6)" class="st1 st2 st3">0.55</text>
				</g>
				<line class="st0" x1="63.5" y1="0" x2="63.5" y2="177"/>
			</g>
		</g>
		<g>
			<defs>
				<rect id="SVGID_5_" x="62.5" width="266" height="177"/>
			</defs>
			<clipPath id="SVGID_6_">
				<use xlink:href="#SVGID_5_"  style="overflow:visible;"/>
			</clipPath>
			<g transform="translate(63, 0)" class="st12">
				<g>
					<g>
						<g>
							<line class="st6" x1="-0.5" y1="0" x2="-0.5" y2="177"/>
							<line class="st6" x1="29.1" y1="0" x2="29.1" y2="177"/>
							<line class="st6" x1="58.7" y1="0" x2="58.7" y2="177"/>
							<line class="st6" x1="88.2" y1="0" x2="88.2" y2="177"/>
							<line class="st6" x1="117.8" y1="0" x2="117.8" y2="177"/>
							<line class="st6" x1="147.3" y1="0" x2="147.3" y2="177"/>
							<line class="st6" x1="176.9" y1="0" x2="176.9" y2="177"/>
							<line class="st6" x1="206.4" y1="0" x2="206.4" y2="177"/>
							<line class="st6" x1="236" y1="0" x2="236" y2="177"/>
							<line class="st6" x1="265.6" y1="0" x2="265.6" y2="177"/>
						</g>
						<g>
							<line class="st6" x1="-0.5" y1="177" x2="265.6" y2="177"/>
							<line class="st6" x1="-0.5" y1="162.2" x2="265.6" y2="162.2"/>
							<line class="st6" x1="-0.5" y1="147.5" x2="265.6" y2="147.5"/>
							<line class="st6" x1="-0.5" y1="132.8" x2="265.6" y2="132.8"/>
							<line class="st6" x1="-0.5" y1="118" x2="265.6" y2="118"/>
							<line class="st6" x1="-0.5" y1="103.2" x2="265.6" y2="103.2"/>
							<line class="st6" x1="-0.5" y1="88.5" x2="265.6" y2="88.5"/>
							<line class="st6" x1="-0.5" y1="73.8" x2="265.6" y2="73.8"/>
							<line class="st6" x1="-0.5" y1="59" x2="265.6" y2="59"/>
							<line class="st6" x1="-0.5" y1="44.2" x2="265.6" y2="44.2"/>
							<line class="st6" x1="-0.5" y1="29.5" x2="265.6" y2="29.5"/>
							<line class="st6" x1="-0.5" y1="14.8" x2="265.6" y2="14.8"/>
							<line class="st6" x1="-0.5" y1="0" x2="265.6" y2="0"/>
						</g>
					</g>
				</g>
				<g>
					<g>
						<line class="st7" x1="-0.5" y1="162.2" x2="265.6" y2="162.2"/>
					</g>
				</g>
				<g>
					<g>
						<line class="st7" x1="29.1" y1="0" x2="29.1" y2="177"/>
					</g>
				</g>
				<g>
					<g>
						<g>
							<g>
								<g>
									<path class="st13" d="M29.1-10.6L35,7.5l5.9,15.1l5.9,15.2l5.9,11l5.9,10.6l5.9,7.8l5.9,4.1l5.9,4.1l5.9,4.3l5.9,3.2
										l5.9,3.4l5.9,0.3l5.9,2.9l5.9-0.5l5.9,1.7l5.9,0.7l5.9,0.8l5.9-0.1l5.9-2.6l5.9,1.9l5.9,0.5l5.9,0.5l5.9,3.5l5.9,1.6
										l5.9-2.4l5.9,1.8l5.9-0.7l5.9,3.1l5.9-2.8l5.9,2.9l5.9,0.4l5.9,2.7l5.9,0.1l5.9,0.5l5.9,1.7l5.9-0.7"/>
								</g>
							</g>
						</g>
					</g>
					<g class="st9">
						<g>
							<g>
								<g>
									<path class="st13" d="M29.1-10.6L35,22l5.9,22.4l5.9,23.1l5.9,7.4L58.7,88l5.9,2.1l5.9-5.9l5.9,4.9l5.9,5.4l5.9-0.4
										l5.9,4.8l5.9-11.4l5.9,13l5.9-13.3l5.9,10l5.9-3l5.9,1l5.9-3.6l5.9-12.2l5.9,19.3l5.9-4.9l5.9,0.5l5.9,15.7l5.9-6.1
										l5.9-18.2l5.9,18.2l5.9-10.7l5.9,18.4l5.9-26.5l5.9,25.7l5.9-9.5l5.9,11.9l5.9-10.3l5.9,1.9l5.9,6.7l5.9-10.2"/>
								</g>
							</g>
						</g>
					</g>
				</g>
			</g>
		</g>
		<g>
			<defs>
				<rect id="SVGID_7_" x="62.5" y="177" width="266" height="23"/>
			</defs>
			<clipPath id="SVGID_8_">
				<use xlink:href="#SVGID_7_"  style="overflow:visible;"/>
			</clipPath>
			<g transform="translate(63, 177)" class="st14">
				<g>
					<g>
						<line class="st0" x1="-0.5" y1="0" x2="-0.5" y2="5"/>
						<line class="st0" x1="29.1" y1="0" x2="29.1" y2="5"/>
						<line class="st0" x1="58.7" y1="0" x2="58.7" y2="5"/>
						<line class="st0" x1="88.2" y1="0" x2="88.2" y2="5"/>
						<line class="st0" x1="117.8" y1="0" x2="117.8" y2="5"/>
						<line class="st0" x1="147.3" y1="0" x2="147.3" y2="5"/>
						<line class="st0" x1="176.9" y1="0" x2="176.9" y2="5"/>
						<line class="st0" x1="206.4" y1="0" x2="206.4" y2="5"/>
						<line class="st0" x1="236" y1="0" x2="236" y2="5"/>
						<line class="st0" x1="265.6" y1="0" x2="265.6" y2="5"/>
					</g>
					<g transform="translate(0, 8)">
						<text transform="matrix(1 0 0 1 -5.7864 11.4)" class="st1 st2 st3">-5</text>
						<text transform="matrix(1 0 0 1 25.769 11.4)" class="st4 st2 st3">0</text>
						<text transform="matrix(1 0 0 1 55.3262 11.4)" class="st4 st2 st3">5</text>
						<text transform="matrix(1 0 0 1 81.5466 11.4)" class="st4 st2 st3">10</text>
						<text transform="matrix(1 0 0 1 111.1039 11.4)" class="st4 st2 st3">15</text>
						<text transform="matrix(1 0 0 1 140.6612 11.4)" class="st4 st2 st3">20</text>
						<text transform="matrix(1 0 0 1 170.2185 11.4)" class="st4 st2 st3">25</text>
						<text transform="matrix(1 0 0 1 199.7759 11.4)" class="st4 st2 st3">30</text>
						<text transform="matrix(1 0 0 1 229.333 11.4)" class="st4 st2 st3">35</text>
						<text transform="matrix(1 0 0 1 258.8904 11.4)" class="st1 st2 st3">40</text>
					</g>
					<line class="st0" x1="-0.5" y1="0" x2="265.6" y2="0"/>
				</g>
			</g>
		</g>
	</g>
</g>
</svg>
