<?xml version="1.0" encoding="utf-8"?>
<!-- Generator: Adobe Illustrator 25.0.0, SVG Export Plug-In . SVG Version: 6.00 Build 0)  -->
<svg version="1.1" id="图层_1" xmlns="http://www.w3.org/2000/svg" xmlns:xlink="http://www.w3.org/1999/xlink" x="0px" y="0px"
	 viewBox="0 0 330 200" style="enable-background:new 0 0 330 200;" xml:space="preserve">
<style type="text/css">
	.st0{fill:none;stroke:#CCCCCC;}
	.st1{display:none;fill:#32313F;enable-background:new    ;}
	.st2{font-family:'ArialMT';}
	.st3{font-size:13.0947px;}
	.st4{fill:#32313F;}
	.st5{clip-path:url(#SVGID_2_);}
	.st6{opacity:0.25;fill:none;stroke:#3C3C3C;enable-background:new    ;}
	.st7{fill:none;stroke:#999999;stroke-width:1.5;}
	.st8{fill:none;stroke:#FF7043;stroke-width:2;}
	.st9{opacity:0.2;}
	.st10{clip-path:url(#SVGID_4_);}
	.st11{font-size:12px;}
	.st12{clip-path:url(#SVGID_6_);}
	.st13{fill:none;stroke:#4774B9;stroke-width:2;}
	.st14{opacity:0.5684;}
	.st15{clip-path:url(#SVGID_8_);}
</style>
<g>
	<g>
		<g>
			<g>
				<g>
					<line class="st0" x1="34.9" y1="175.6" x2="29.9" y2="175.6"/>
					<line class="st0" x1="34.9" y1="158.1" x2="29.9" y2="158.1"/>
					<line class="st0" x1="34.9" y1="140.5" x2="29.9" y2="140.5"/>
					<line class="st0" x1="34.9" y1="122.9" x2="29.9" y2="122.9"/>
					<line class="st0" x1="34.9" y1="105.4" x2="29.9" y2="105.4"/>
					<line class="st0" x1="34.9" y1="87.8" x2="29.9" y2="87.8"/>
					<line class="st0" x1="34.9" y1="70.3" x2="29.9" y2="70.3"/>
					<line class="st0" x1="34.9" y1="52.7" x2="29.9" y2="52.7"/>
					<line class="st0" x1="34.9" y1="35.1" x2="29.9" y2="35.1"/>
					<line class="st0" x1="34.9" y1="17.6" x2="29.9" y2="17.6"/>
					<line class="st0" x1="34.9" y1="0" x2="29.9" y2="0"/>
					<line class="st0" x1="34.9" y1="-17.5" x2="29.9" y2="-17.5"/>
				</g>
				<g transform="translate(43.1875, 0)">
					<text transform="matrix(0.9164 0 0 1 -38.9224 179.5352)" class="st1 st2 st3">-0.1</text>
					<text transform="matrix(0.9164 0 0 1 -24.9185 161.9775)" class="st4 st2 st3">0</text>
					<text transform="matrix(0.9164 0 0 1 -34.9263 144.418)" class="st1 st2 st3">0.1</text>
					<text transform="matrix(0.9164 0 0 1 -34.9263 126.8594)" class="st4 st2 st3">0.2</text>
					<text transform="matrix(0.9164 0 0 1 -34.9263 109.3008)" class="st1 st2 st3">0.3</text>
					<text transform="matrix(0.9164 0 0 1 -34.9263 91.7417)" class="st4 st2 st3">0.4</text>
					<text transform="matrix(0.9164 0 0 1 -34.9263 74.1836)" class="st1 st2 st3">0.5</text>
					<text transform="matrix(0.9164 0 0 1 -34.9263 56.6245)" class="st4 st2 st3">0.6</text>
					<text transform="matrix(0.9164 0 0 1 -34.9263 39.0659)" class="st1 st2 st3">0.7</text>
					<text transform="matrix(0.9164 0 0 1 -34.9263 21.5068)" class="st4 st2 st3">0.8</text>
					<text transform="matrix(0.9164 0 0 1 -34.9263 3.9482)" class="st1 st2 st3">0.9</text>
					<text transform="matrix(0.9164 0 0 1 -24.9185 -13.6104)" class="st1 st2 st3">1</text>
				</g>
				<line class="st0" x1="34.9" y1="-17.5" x2="34.9" y2="175.6"/>
			</g>
		</g>
		<g>
			<defs>
				<rect id="SVGID_1_" x="34.8" y="-17.5" width="276" height="193.1"/>
			</defs>
			<clipPath id="SVGID_2_">
				<use xlink:href="#SVGID_1_"  style="overflow:visible;"/>
			</clipPath>
			<g transform="translate(53, 0)" class="st5">
				<g>
					<g>
						<g>
							<line class="st6" x1="-18.2" y1="-17.5" x2="-18.2" y2="175.6"/>
							<line class="st6" x1="12.5" y1="-17.5" x2="12.5" y2="175.6"/>
							<line class="st6" x1="43.3" y1="-17.5" x2="43.3" y2="175.6"/>
							<line class="st6" x1="74" y1="-17.5" x2="74" y2="175.6"/>
							<line class="st6" x1="104.8" y1="-17.5" x2="104.8" y2="175.6"/>
							<line class="st6" x1="135.5" y1="-17.5" x2="135.5" y2="175.6"/>
							<line class="st6" x1="166.3" y1="-17.5" x2="166.3" y2="175.6"/>
							<line class="st6" x1="197.1" y1="-17.5" x2="197.1" y2="175.6"/>
							<line class="st6" x1="227.8" y1="-17.5" x2="227.8" y2="175.6"/>
							<line class="st6" x1="258.6" y1="-17.5" x2="258.6" y2="175.6"/>
						</g>
						<g>
							<line class="st6" x1="-18.2" y1="175.6" x2="258.6" y2="175.6"/>
							<line class="st6" x1="-18.2" y1="158.1" x2="258.6" y2="158.1"/>
							<line class="st6" x1="-18.2" y1="140.5" x2="258.6" y2="140.5"/>
							<line class="st6" x1="-18.2" y1="122.9" x2="258.6" y2="122.9"/>
							<line class="st6" x1="-18.2" y1="105.4" x2="258.6" y2="105.4"/>
							<line class="st6" x1="-18.2" y1="87.8" x2="258.6" y2="87.8"/>
							<line class="st6" x1="-18.2" y1="70.3" x2="258.6" y2="70.3"/>
							<line class="st6" x1="-18.2" y1="52.7" x2="258.6" y2="52.7"/>
							<line class="st6" x1="-18.2" y1="35.1" x2="258.6" y2="35.1"/>
							<line class="st6" x1="-18.2" y1="17.6" x2="258.6" y2="17.6"/>
							<line class="st6" x1="-18.2" y1="0" x2="258.6" y2="0"/>
							<line class="st6" x1="-18.2" y1="-17.5" x2="258.6" y2="-17.5"/>
						</g>
					</g>
				</g>
				<g>
					<g>
						<line class="st7" x1="-18.2" y1="158.1" x2="258.6" y2="158.1"/>
					</g>
				</g>
				<g>
					<g>
						<line class="st7" x1="12.5" y1="-17.5" x2="12.5" y2="175.6"/>
					</g>
				</g>
				<g>
					<g>
						<g>
							<g>
								<g>
									<path class="st8" d="M12.5-24.3l6.2,24.5l6.2,15.6L31,31.7L37.1,42l6.2,7l6.2,7.8l6.2,6.9l6.2,5.6l6.2,4.7l6.2,3.1l6.2,4
										l6.2,3.1l6.2,1.9l6.2,2.1l6.2,2.2l6.2,2.4l6.2,1l6.2,1.7l6.2,1l6.2,1.9l6.2,2.5l6.2,2.5l6.2,2.4l6.2,2l6.2,1.6l6.2,1.2
										l6.2,1.1l6.2,0.7l6.2,1.5l6.2,1.4l6.2,0.9l6.2,1.9l6.2,0.6l6.2,1.4l6.2,1l6.2,0.9"/>
								</g>
							</g>
						</g>
					</g>
					<g class="st9">
						<g>
							<g>
								<g>
									<path class="st8" d="M12.5-24.3l6.2,44.2l6.2,18.5L31,62.6l6.2,3.7l6.2,1.6l6.2,12l6.2,5.6l6.2,2.4l6.2,2.3l6.2-2.2
										l6.2,7.6l6.2-0.1l6.2-2.3l6.2,2.8l6.2,2.8l6.2,3.2l6.2-4.4l6.2,4.1l6.2-1.4l6.2,5.5l6.2,5l6.2,2.5l6.2,2l6.2,0.3l6.2,0.2
										l6.2-0.5l6.2,0.5l6.2-0.7l6.2,4.5l6.2,1.2l6.2-1.3l6.2,5.7l6.2-4.2l6.2,4.6l6.2-0.7l6.2,0.5"/>
								</g>
							</g>
						</g>
					</g>
				</g>
			</g>
		</g>
		<g>
			<defs>
				<rect id="SVGID_3_" x="34.8" y="175.6" width="276" height="25.1"/>
			</defs>
			<clipPath id="SVGID_4_">
				<use xlink:href="#SVGID_3_"  style="overflow:visible;"/>
			</clipPath>
			<g transform="translate(53, 177)" class="st10">
				<g>
					<g>
						<line class="st0" x1="-18.2" y1="-1.4" x2="-18.2" y2="4.1"/>
						<line class="st0" x1="12.5" y1="-1.4" x2="12.5" y2="4.1"/>
						<line class="st0" x1="43.3" y1="-1.4" x2="43.3" y2="4.1"/>
						<line class="st0" x1="74" y1="-1.4" x2="74" y2="4.1"/>
						<line class="st0" x1="104.8" y1="-1.4" x2="104.8" y2="4.1"/>
						<line class="st0" x1="135.5" y1="-1.4" x2="135.5" y2="4.1"/>
						<line class="st0" x1="166.3" y1="-1.4" x2="166.3" y2="4.1"/>
						<line class="st0" x1="197.1" y1="-1.4" x2="197.1" y2="4.1"/>
						<line class="st0" x1="227.8" y1="-1.4" x2="227.8" y2="4.1"/>
						<line class="st0" x1="258.6" y1="-1.4" x2="258.6" y2="4.1"/>
					</g>
					<g transform="translate(0, 8)">
						<text transform="matrix(0.9164 0 0 1 -23.5796 11.7773)" class="st1 st2 st3">-5</text>
						<text transform="matrix(0.9164 0 0 1 9.1753 11.7773)" class="st4 st2 st3">0</text>
						<text transform="matrix(0.9164 0 0 1 39.9321 11.7773)" class="st4 st2 st3">5</text>
						<text transform="matrix(0.9164 0 0 1 67.353 11.7773)" class="st4 st2 st3">10</text>
						<text transform="matrix(0.9164 0 0 1 98.1099 11.7773)" class="st4 st2 st3">15</text>
						<text transform="matrix(0.9164 0 0 1 128.8672 11.7773)" class="st4 st2 st3">20</text>
						<text transform="matrix(0.9164 0 0 1 159.624 11.7773)" class="st4 st2 st3">25</text>
						<text transform="matrix(0.9164 0 0 1 190.3809 11.7773)" class="st4 st2 st3">30</text>
						<text transform="matrix(0.9164 0 0 1 221.1377 11.7773)" class="st4 st2 st3">35</text>
						<text transform="matrix(0.9164 0 0 1 251.8945 11.7773)" class="st1 st2 st3">40</text>
					</g>
					<line class="st0" x1="-18.2" y1="-1.4" x2="258.6" y2="-1.4"/>
				</g>
			</g>
		</g>
	</g>
</g>
<g>
	<g>
		<g>
			<g>
				<g>
					<line class="st0" x1="34.9" y1="177" x2="29.9" y2="177"/>
					<line class="st0" x1="34.9" y1="159.3" x2="29.9" y2="159.3"/>
					<line class="st0" x1="34.9" y1="141.6" x2="29.9" y2="141.6"/>
					<line class="st0" x1="34.9" y1="123.9" x2="29.9" y2="123.9"/>
					<line class="st0" x1="34.9" y1="106.2" x2="29.9" y2="106.2"/>
					<line class="st0" x1="34.9" y1="88.5" x2="29.9" y2="88.5"/>
					<line class="st0" x1="34.9" y1="70.8" x2="29.9" y2="70.8"/>
					<line class="st0" x1="34.9" y1="53.1" x2="29.9" y2="53.1"/>
					<line class="st0" x1="34.9" y1="35.4" x2="29.9" y2="35.4"/>
					<line class="st0" x1="34.9" y1="17.7" x2="29.9" y2="17.7"/>
					<line class="st0" x1="34.9" y1="0" x2="29.9" y2="0"/>
				</g>
				<g transform="translate(43.1875, 0)">
					<text transform="matrix(1 0 0 1 -38.9225 180.6)" class="st1 st2 st11">-0.1</text>
					<text transform="matrix(1 0 0 1 -24.9186 162.9)" class="st4 st2 st11">0</text>
					<text transform="matrix(1 0 0 1 -34.9264 145.2)" class="st1 st2 st11">0.1</text>
					<text transform="matrix(1 0 0 1 -34.9264 127.5)" class="st4 st2 st11">0.2</text>
					<text transform="matrix(1 0 0 1 -34.9264 109.8)" class="st1 st2 st11">0.3</text>
					<text transform="matrix(1 0 0 1 -34.9264 92.1)" class="st4 st2 st11">0.4</text>
					<text transform="matrix(1 0 0 1 -34.9264 74.4)" class="st1 st2 st11">0.5</text>
					<text transform="matrix(1 0 0 1 -34.9264 56.7)" class="st4 st2 st11">0.6</text>
					<text transform="matrix(1 0 0 1 -34.9264 39)" class="st1 st2 st11">0.7</text>
					<text transform="matrix(1 0 0 1 -34.9264 21.3)" class="st4 st2 st11">0.8</text>
					<text transform="matrix(1 0 0 1 -34.9264 3.6)" class="st1 st2 st11">0.9</text>
				</g>
				<line class="st0" x1="34.9" y1="0" x2="34.9" y2="177"/>
			</g>
		</g>
		<g>
			<defs>
				<rect id="SVGID_5_" x="34.8" width="276" height="177"/>
			</defs>
			<clipPath id="SVGID_6_">
				<use xlink:href="#SVGID_5_"  style="overflow:visible;"/>
			</clipPath>
			<g transform="translate(53, 0)" class="st12">
				<g>
					<g>
						<g>
							<line class="st6" x1="-18.2" y1="0" x2="-18.2" y2="177"/>
							<line class="st6" x1="12.5" y1="0" x2="12.5" y2="177"/>
							<line class="st6" x1="43.3" y1="0" x2="43.3" y2="177"/>
							<line class="st6" x1="74" y1="0" x2="74" y2="177"/>
							<line class="st6" x1="104.8" y1="0" x2="104.8" y2="177"/>
							<line class="st6" x1="135.5" y1="0" x2="135.5" y2="177"/>
							<line class="st6" x1="166.3" y1="0" x2="166.3" y2="177"/>
							<line class="st6" x1="197.1" y1="0" x2="197.1" y2="177"/>
							<line class="st6" x1="227.8" y1="0" x2="227.8" y2="177"/>
							<line class="st6" x1="258.6" y1="0" x2="258.6" y2="177"/>
						</g>
						<g>
							<line class="st6" x1="-18.2" y1="177" x2="258.6" y2="177"/>
							<line class="st6" x1="-18.2" y1="159.3" x2="258.6" y2="159.3"/>
							<line class="st6" x1="-18.2" y1="141.6" x2="258.6" y2="141.6"/>
							<line class="st6" x1="-18.2" y1="123.9" x2="258.6" y2="123.9"/>
							<line class="st6" x1="-18.2" y1="106.2" x2="258.6" y2="106.2"/>
							<line class="st6" x1="-18.2" y1="88.5" x2="258.6" y2="88.5"/>
							<line class="st6" x1="-18.2" y1="70.8" x2="258.6" y2="70.8"/>
							<line class="st6" x1="-18.2" y1="53.1" x2="258.6" y2="53.1"/>
							<line class="st6" x1="-18.2" y1="35.4" x2="258.6" y2="35.4"/>
							<line class="st6" x1="-18.2" y1="17.7" x2="258.6" y2="17.7"/>
							<line class="st6" x1="-18.2" y1="0" x2="258.6" y2="0"/>
						</g>
					</g>
				</g>
				<g>
					<g>
						<line class="st7" x1="-18.2" y1="159.3" x2="258.6" y2="159.3"/>
					</g>
				</g>
				<g>
					<g>
						<line class="st7" x1="12.5" y1="0" x2="12.5" y2="177"/>
					</g>
				</g>
				<g>
					<g>
						<g>
							<g>
								<g>
									<path class="st13" d="M12.5,5l6.2,4.7l6.2,14.1L31,36l6.2,8.7l6.2,6.9l6.2,10.9l6.2,3.6l6.2,6.3l6.2,0.7l6.2,7.7l6.2,0.1
										l6.2,5.3l6.2,6l6.2,1.9l6.2,3.5l6.2,2.2l6.2-1l6.2-0.5l6.2,0.3l6.2,5.6l6.2,2.8l6.2,0.1l6.2,3.1l6.2,0.8l6.2,1.1l6.2-3.9
										l6.2,1.3l6.2,6.6l6.2,2.3l6.2,4l6.2-0.9l6.2,1.9l6.2,0.3l6.2,0.5l6.2,1.2l6.2-1.6"/>
								</g>
							</g>
						</g>
					</g>
					<g class="st9">
						<g>
							<g>
								<g>
									<path class="st13" d="M12.5,5l6.2,8.5L24.8,44L31,59.9l6.2,5.2l6.2,5l6.2,24.4l6.2-17.1l6.2,15.9l6.2-17.8l6.2,32.7
										l6.2-26.8l6.2,24.6l6.2,8.9l6.2-13.3l6.2,9.7l6.2-2.8l6.2-13.6l6.2,1.5l6.2,3.6l6.2,26.2l6.2-8.2l6.2-10.7l6.2,15.2
										l6.2-8.1l6.2,1.9l6.2-23.7l6.2,22l6.2,27.9l6.2-15.1l6.2,10.9l6.2-20.4l6.2,13.1l6.2-5.9l6.2,1l6.2,4l6.2-12.8"/>
								</g>
							</g>
						</g>
					</g>
				</g>
				<g>
					<g class="st14">
						<span  fill="rgb(0, 0, 0)" stroke="none" stroke-width="1px" style="white-space: normal;">Alt + Scroll to Zoom</span>
					</g>
				</g>
			</g>
		</g>
		<g>
			<defs>
				<rect id="SVGID_7_" x="34.8" y="177" width="276" height="23"/>
			</defs>
			<clipPath id="SVGID_8_">
				<use xlink:href="#SVGID_7_"  style="overflow:visible;"/>
			</clipPath>
			<g transform="translate(53, 177)" class="st15">
				<g>
					<g>
						<line class="st0" x1="-18.2" y1="0" x2="-18.2" y2="5"/>
						<line class="st0" x1="12.5" y1="0" x2="12.5" y2="5"/>
						<line class="st0" x1="43.3" y1="0" x2="43.3" y2="5"/>
						<line class="st0" x1="74" y1="0" x2="74" y2="5"/>
						<line class="st0" x1="104.8" y1="0" x2="104.8" y2="5"/>
						<line class="st0" x1="135.5" y1="0" x2="135.5" y2="5"/>
						<line class="st0" x1="166.3" y1="0" x2="166.3" y2="5"/>
						<line class="st0" x1="197.1" y1="0" x2="197.1" y2="5"/>
						<line class="st0" x1="227.8" y1="0" x2="227.8" y2="5"/>
						<line class="st0" x1="258.6" y1="0" x2="258.6" y2="5"/>
					</g>
					<g transform="translate(0, 8)">
						<text transform="matrix(1 0 0 1 -23.5797 11.4)" class="st1 st2 st11">-5</text>
						<text transform="matrix(1 0 0 1 9.1753 11.4)" class="st4 st2 st11">0</text>
						<text transform="matrix(1 0 0 1 39.9323 11.4)" class="st4 st2 st11">5</text>
						<text transform="matrix(1 0 0 1 67.3523 11.4)" class="st4 st2 st11">10</text>
						<text transform="matrix(1 0 0 1 98.1092 11.4)" class="st4 st2 st11">15</text>
						<text transform="matrix(1 0 0 1 128.8661 11.4)" class="st4 st2 st11">20</text>
						<text transform="matrix(1 0 0 1 159.623 11.4)" class="st4 st2 st11">25</text>
						<text transform="matrix(1 0 0 1 190.38 11.4)" class="st4 st2 st11">30</text>
						<text transform="matrix(1 0 0 1 221.137 11.4)" class="st4 st2 st11">35</text>
						<text transform="matrix(1 0 0 1 251.8939 11.4)" class="st1 st2 st11">40</text>
					</g>
					<line class="st0" x1="-18.2" y1="0" x2="258.6" y2="0"/>
				</g>
			</g>
		</g>
	</g>
</g>
</svg>
