<?xml version="1.0" encoding="utf-8"?>
<!-- Generator: Adobe Illustrator 25.0.0, SVG Export Plug-In . SVG Version: 6.00 Build 0)  -->
<svg version="1.1" id="图层_1" xmlns="http://www.w3.org/2000/svg" xmlns:xlink="http://www.w3.org/1999/xlink" x="0px" y="0px"
	 viewBox="0 0 330 200" style="enable-background:new 0 0 330 200;" xml:space="preserve">
<style type="text/css">
	.st0{fill:none;stroke:#CCCCCC;}
	.st1{display:none;fill:#32313F;enable-background:new    ;}
	.st2{font-family:'ArialMT';}
	.st3{font-size:12px;}
	.st4{fill:#32313F;}
	.st5{clip-path:url(#SVGID_2_);}
	.st6{opacity:0.25;fill:none;stroke:#3C3C3C;enable-background:new    ;}
	.st7{fill:none;stroke:#999999;stroke-width:1.5;}
	.st8{fill:none;stroke:#FF7043;stroke-width:2;}
	.st9{opacity:0.2;}
	.st10{clip-path:url(#SVGID_4_);}
	.st11{clip-path:url(#SVGID_6_);}
	.st12{fill:none;stroke:#4774B9;stroke-width:2;}
	.st13{clip-path:url(#SVGID_8_);}
</style>
<g>
	<g>
		<g>
			<g>
				<g>
					<line class="st0" x1="64" y1="177" x2="59" y2="177"/>
					<line class="st0" x1="64" y1="160.9" x2="59" y2="160.9"/>
					<line class="st0" x1="64" y1="144.8" x2="59" y2="144.8"/>
					<line class="st0" x1="64" y1="128.7" x2="59" y2="128.7"/>
					<line class="st0" x1="64" y1="112.6" x2="59" y2="112.6"/>
					<line class="st0" x1="64" y1="96.5" x2="59" y2="96.5"/>
					<line class="st0" x1="64" y1="80.5" x2="59" y2="80.5"/>
					<line class="st0" x1="64" y1="64.4" x2="59" y2="64.4"/>
					<line class="st0" x1="64" y1="48.3" x2="59" y2="48.3"/>
					<line class="st0" x1="64" y1="32.2" x2="59" y2="32.2"/>
					<line class="st0" x1="64" y1="16.1" x2="59" y2="16.1"/>
					<line class="st0" x1="64" y1="0" x2="59" y2="0"/>
				</g>
				<g transform="translate(53.984375, 0)">
					<text transform="matrix(1 0 0 1 -27.3516 180.6)" class="st1 st2 st3">-0.02</text>
					<text transform="matrix(1 0 0 1 -6.6738 164.5091)" class="st4 st2 st3">0</text>
					<text transform="matrix(1 0 0 1 -23.3555 148.4182)" class="st1 st2 st3">0.02</text>
					<text transform="matrix(1 0 0 1 -23.3555 132.3273)" class="st4 st2 st3">0.04</text>
					<text transform="matrix(1 0 0 1 -23.3555 116.2363)" class="st1 st2 st3">0.06</text>
					<text transform="matrix(1 0 0 1 -23.3555 100.1454)" class="st4 st2 st3">0.08</text>
					<text transform="matrix(1 0 0 1 -16.6816 84.0546)" class="st1 st2 st3">0.1</text>
					<text transform="matrix(1 0 0 1 -23.3555 67.9636)" class="st4 st2 st3">0.12</text>
					<text transform="matrix(1 0 0 1 -23.3555 51.8727)" class="st1 st2 st3">0.14</text>
					<text transform="matrix(1 0 0 1 -23.3555 35.7819)" class="st4 st2 st3">0.16</text>
					<text transform="matrix(1 0 0 1 -23.3555 19.6909)" class="st1 st2 st3">0.18</text>
					<text transform="matrix(1 0 0 1 -16.6816 3.6)" class="st1 st2 st3">0.2</text>
				</g>
				<line class="st0" x1="64" y1="0" x2="64" y2="177"/>
			</g>
		</g>
		<g>
			<defs>
				<rect id="SVGID_1_" x="63" width="266" height="177"/>
			</defs>
			<clipPath id="SVGID_2_">
				<use xlink:href="#SVGID_1_"  style="overflow:visible;"/>
			</clipPath>
			<g transform="translate(63, 0)" class="st5">
				<g>
					<g>
						<g>
							<line class="st6" x1="0" y1="0" x2="0" y2="177"/>
							<line class="st6" x1="29.6" y1="0" x2="29.6" y2="177"/>
							<line class="st6" x1="59.1" y1="0" x2="59.1" y2="177"/>
							<line class="st6" x1="88.7" y1="0" x2="88.7" y2="177"/>
							<line class="st6" x1="118.2" y1="0" x2="118.2" y2="177"/>
							<line class="st6" x1="147.8" y1="0" x2="147.8" y2="177"/>
							<line class="st6" x1="177.3" y1="0" x2="177.3" y2="177"/>
							<line class="st6" x1="206.9" y1="0" x2="206.9" y2="177"/>
							<line class="st6" x1="236.5" y1="0" x2="236.5" y2="177"/>
							<line class="st6" x1="266" y1="0" x2="266" y2="177"/>
						</g>
						<g>
							<line class="st6" x1="0" y1="177" x2="266" y2="177"/>
							<line class="st6" x1="0" y1="160.9" x2="266" y2="160.9"/>
							<line class="st6" x1="0" y1="144.8" x2="266" y2="144.8"/>
							<line class="st6" x1="0" y1="128.7" x2="266" y2="128.7"/>
							<line class="st6" x1="0" y1="112.6" x2="266" y2="112.6"/>
							<line class="st6" x1="0" y1="96.5" x2="266" y2="96.5"/>
							<line class="st6" x1="0" y1="80.5" x2="266" y2="80.5"/>
							<line class="st6" x1="0" y1="64.4" x2="266" y2="64.4"/>
							<line class="st6" x1="0" y1="48.3" x2="266" y2="48.3"/>
							<line class="st6" x1="0" y1="32.2" x2="266" y2="32.2"/>
							<line class="st6" x1="0" y1="16.1" x2="266" y2="16.1"/>
							<line class="st6" x1="0" y1="0" x2="266" y2="0"/>
						</g>
					</g>
				</g>
				<g>
					<g>
						<line class="st7" x1="0" y1="160.9" x2="266" y2="160.9"/>
					</g>
				</g>
				<g>
					<g>
						<line class="st7" x1="29.6" y1="0" x2="29.6" y2="177"/>
					</g>
				</g>
				<g>
					<g>
						<g>
							<g>
								<g>
									<path class="st8" d="M29.6-49.1l5.9,50.6l5.9,26l5.9,19l5.9,16.3l5.9,9.2l5.9,8.8l5.9,6.3l5.9,4.9l5.9,4.1l5.9,3.4l5.9,3.1
										l5.9,2.7l5.9,2l5.9-0.8l5.9,2.5l5.9,2.4l5.9,1.3l5.9,0.4l5.9,1.1l5.9,0.2l5.9,0.8l5.9,2l5.9,1.5l5.9,1l5.9,1.1l5.9,1.1
										l5.9,1.4l5.9,1.6l5.9,1.3l5.9,0.1l5.9,1.3l5.9,0.1l5.9,0l5.9,1.1l5.9,0.7l5.9,0.1"/>
								</g>
							</g>
						</g>
					</g>
					<g class="st9">
						<g>
							<g>
								<g>
									<path class="st8" d="M29.6-49.1l5.9,91.2L41.4,65l5.9,18.6l5.9,17.7l5.9-4.4l5.9,10l5.9,0.2l5.9,1.1l5.9,2l5.9,1.6l5.9,1.9
										l5.9,1.6l5.9-0.5l5.9-11.4l5.9,15.2l5.9,2.2l5.9-3.2l5.9-3l5.9,4.1l5.9-3.6l5.9,3.5l5.9,6.6l5.9-0.2l5.9-1.3l5.9,1.4
										l5.9,1.1l5.9,2.6l5.9,2.5l5.9,0l5.9-4.3l5.9,5.8l5.9-4.7l5.9-0.6l5.9,5.7l5.9-1.1l5.9-2.1"/>
								</g>
							</g>
						</g>
					</g>
				</g>
			</g>
		</g>
		<g>
			<defs>
				<rect id="SVGID_3_" x="63" y="177" width="266" height="23"/>
			</defs>
			<clipPath id="SVGID_4_">
				<use xlink:href="#SVGID_3_"  style="overflow:visible;"/>
			</clipPath>
			<g transform="translate(63, 177)" class="st10">
				<g>
					<g>
						<line class="st0" x1="0" y1="0" x2="0" y2="5"/>
						<line class="st0" x1="29.6" y1="0" x2="29.6" y2="5"/>
						<line class="st0" x1="59.1" y1="0" x2="59.1" y2="5"/>
						<line class="st0" x1="88.7" y1="0" x2="88.7" y2="5"/>
						<line class="st0" x1="118.2" y1="0" x2="118.2" y2="5"/>
						<line class="st0" x1="147.8" y1="0" x2="147.8" y2="5"/>
						<line class="st0" x1="177.3" y1="0" x2="177.3" y2="5"/>
						<line class="st0" x1="206.9" y1="0" x2="206.9" y2="5"/>
						<line class="st0" x1="236.5" y1="0" x2="236.5" y2="5"/>
						<line class="st0" x1="266" y1="0" x2="266" y2="5"/>
					</g>
					<g transform="translate(0, 8)">
						<text transform="matrix(1 0 0 1 -5.335 11.4)" class="st1 st2 st3">-5</text>
						<text transform="matrix(1 0 0 1 26.2204 11.4)" class="st4 st2 st3">0</text>
						<text transform="matrix(1 0 0 1 55.7776 11.4)" class="st4 st2 st3">5</text>
						<text transform="matrix(1 0 0 1 81.998 11.4)" class="st4 st2 st3">10</text>
						<text transform="matrix(1 0 0 1 111.5553 11.4)" class="st4 st2 st3">15</text>
						<text transform="matrix(1 0 0 1 141.1126 11.4)" class="st4 st2 st3">20</text>
						<text transform="matrix(1 0 0 1 170.6699 11.4)" class="st4 st2 st3">25</text>
						<text transform="matrix(1 0 0 1 200.2273 11.4)" class="st4 st2 st3">30</text>
						<text transform="matrix(1 0 0 1 229.7844 11.4)" class="st4 st2 st3">35</text>
						<text transform="matrix(1 0 0 1 259.3418 11.4)" class="st1 st2 st3">40</text>
					</g>
					<line class="st0" x1="0" y1="0" x2="266" y2="0"/>
				</g>
			</g>
		</g>
	</g>
</g>
<g>
	<g>
		<g>
			<g>
				<g>
					<line class="st0" x1="63.8" y1="177" x2="58.8" y2="177"/>
					<line class="st0" x1="63.8" y1="160.9" x2="58.8" y2="160.9"/>
					<line class="st0" x1="63.8" y1="144.8" x2="58.8" y2="144.8"/>
					<line class="st0" x1="63.8" y1="128.7" x2="58.8" y2="128.7"/>
					<line class="st0" x1="63.8" y1="112.6" x2="58.8" y2="112.6"/>
					<line class="st0" x1="63.8" y1="96.5" x2="58.8" y2="96.5"/>
					<line class="st0" x1="63.8" y1="80.5" x2="58.8" y2="80.5"/>
					<line class="st0" x1="63.8" y1="64.4" x2="58.8" y2="64.4"/>
					<line class="st0" x1="63.8" y1="48.3" x2="58.8" y2="48.3"/>
					<line class="st0" x1="63.8" y1="32.2" x2="58.8" y2="32.2"/>
					<line class="st0" x1="63.8" y1="16.1" x2="58.8" y2="16.1"/>
					<line class="st0" x1="63.8" y1="0" x2="58.8" y2="0"/>
				</g>
				<g transform="translate(53.984375, 0)">
					<text transform="matrix(1 0 0 1 -27.5236 180.6)" class="st1 st2 st3">-0.02</text>
					<text transform="matrix(1 0 0 1 -6.8458 164.5091)" class="st4 st2 st3">0</text>
					<text transform="matrix(1 0 0 1 -23.5275 148.4182)" class="st1 st2 st3">0.02</text>
					<text transform="matrix(1 0 0 1 -23.5275 132.3273)" class="st4 st2 st3">0.04</text>
					<text transform="matrix(1 0 0 1 -23.5275 116.2363)" class="st1 st2 st3">0.06</text>
					<text transform="matrix(1 0 0 1 -23.5275 100.1454)" class="st4 st2 st3">0.08</text>
					<text transform="matrix(1 0 0 1 -16.8536 84.0546)" class="st1 st2 st3">0.1</text>
					<text transform="matrix(1 0 0 1 -23.5275 67.9636)" class="st4 st2 st3">0.12</text>
					<text transform="matrix(1 0 0 1 -23.5275 51.8727)" class="st1 st2 st3">0.14</text>
					<text transform="matrix(1 0 0 1 -23.5275 35.7819)" class="st4 st2 st3">0.16</text>
					<text transform="matrix(1 0 0 1 -23.5275 19.6909)" class="st1 st2 st3">0.18</text>
					<text transform="matrix(1 0 0 1 -16.8536 3.6)" class="st1 st2 st3">0.2</text>
				</g>
				<line class="st0" x1="63.8" y1="0" x2="63.8" y2="177"/>
			</g>
		</g>
		<g>
			<defs>
				<rect id="SVGID_5_" x="62.8" width="266" height="177"/>
			</defs>
			<clipPath id="SVGID_6_">
				<use xlink:href="#SVGID_5_"  style="overflow:visible;"/>
			</clipPath>
			<g transform="translate(63, 0)" class="st11">
				<g>
					<g>
						<g>
							<line class="st6" x1="-0.2" y1="0" x2="-0.2" y2="177"/>
							<line class="st6" x1="29.4" y1="0" x2="29.4" y2="177"/>
							<line class="st6" x1="58.9" y1="0" x2="58.9" y2="177"/>
							<line class="st6" x1="88.5" y1="0" x2="88.5" y2="177"/>
							<line class="st6" x1="118.1" y1="0" x2="118.1" y2="177"/>
							<line class="st6" x1="147.6" y1="0" x2="147.6" y2="177"/>
							<line class="st6" x1="177.2" y1="0" x2="177.2" y2="177"/>
							<line class="st6" x1="206.7" y1="0" x2="206.7" y2="177"/>
							<line class="st6" x1="236.3" y1="0" x2="236.3" y2="177"/>
							<line class="st6" x1="265.8" y1="0" x2="265.8" y2="177"/>
						</g>
						<g>
							<line class="st6" x1="-0.2" y1="177" x2="265.8" y2="177"/>
							<line class="st6" x1="-0.2" y1="160.9" x2="265.8" y2="160.9"/>
							<line class="st6" x1="-0.2" y1="144.8" x2="265.8" y2="144.8"/>
							<line class="st6" x1="-0.2" y1="128.7" x2="265.8" y2="128.7"/>
							<line class="st6" x1="-0.2" y1="112.6" x2="265.8" y2="112.6"/>
							<line class="st6" x1="-0.2" y1="96.5" x2="265.8" y2="96.5"/>
							<line class="st6" x1="-0.2" y1="80.5" x2="265.8" y2="80.5"/>
							<line class="st6" x1="-0.2" y1="64.4" x2="265.8" y2="64.4"/>
							<line class="st6" x1="-0.2" y1="48.3" x2="265.8" y2="48.3"/>
							<line class="st6" x1="-0.2" y1="32.2" x2="265.8" y2="32.2"/>
							<line class="st6" x1="-0.2" y1="16.1" x2="265.8" y2="16.1"/>
							<line class="st6" x1="-0.2" y1="0" x2="265.8" y2="0"/>
						</g>
					</g>
				</g>
				<g>
					<g>
						<line class="st7" x1="-0.2" y1="160.9" x2="265.8" y2="160.9"/>
					</g>
				</g>
				<g>
					<g>
						<line class="st7" x1="29.4" y1="0" x2="29.4" y2="177"/>
					</g>
				</g>
				<g>
					<g>
						<g>
							<g>
								<g>
									<path class="st12" d="M29.4,13.1l5.9,7l5.9,7l5.9,14.2L53,54l5.9,15.7l5.9,12.6l5.9,3.7l5.9,7.3l5.9,5l5.9,2.9l5.9,4.9
										l5.9,1.6l5.9,2.8l5.9-4.9l5.9,4.9l5.9,3.7l5.9,0.8l5.9-1.4l5.9,1.2l5.9,4.9l5.9-2.9l5.9-0.4l5.9,1.4l5.9,3.8l5.9,2.7l5.9,1
										l5.9-1.4l5.9,5.6l5.9-2.2l5.9,2.1l5.9-2.1l5.9,0.1l5.9-0.3l5.9,2l5.9,2.3l5.9-5"/>
								</g>
							</g>
						</g>
					</g>
					<g class="st9">
						<g>
							<g>
								<g>
									<path class="st12" d="M29.4,13.1l5.9,12.6l5.9,11.5l5.9,31.9L53,83.9l5.9,28.2l5.9,7.4l5.9-21.6l5.9,19.6l5.9-1.7l5.9-4
										l5.9,12.2l5.9-10.2l5.9,7.6l5.9-34.2l5.9,42.4l5.9-0.9l5.9-10.5l5.9-9.8l5.9,11.1l5.9,19.4l5.9-33.5l5.9,9.6l5.9,8.3
										l5.9,13.3l5.9-1.4l5.9-5.7l5.9-10.9l5.9,33.4l5.9-33.3l5.9,19.4l5.9-19.1l5.9,8.9l5.9-2l5.9,11.1l5.9,3.7l5.9-34.2"/>
								</g>
							</g>
						</g>
					</g>
				</g>
			</g>
		</g>
		<g>
			<defs>
				<rect id="SVGID_7_" x="62.8" y="177" width="266" height="23"/>
			</defs>
			<clipPath id="SVGID_8_">
				<use xlink:href="#SVGID_7_"  style="overflow:visible;"/>
			</clipPath>
			<g transform="translate(63, 177)" class="st13">
				<g>
					<g>
						<line class="st0" x1="-0.2" y1="0" x2="-0.2" y2="5"/>
						<line class="st0" x1="29.4" y1="0" x2="29.4" y2="5"/>
						<line class="st0" x1="58.9" y1="0" x2="58.9" y2="5"/>
						<line class="st0" x1="88.5" y1="0" x2="88.5" y2="5"/>
						<line class="st0" x1="118.1" y1="0" x2="118.1" y2="5"/>
						<line class="st0" x1="147.6" y1="0" x2="147.6" y2="5"/>
						<line class="st0" x1="177.2" y1="0" x2="177.2" y2="5"/>
						<line class="st0" x1="206.7" y1="0" x2="206.7" y2="5"/>
						<line class="st0" x1="236.3" y1="0" x2="236.3" y2="5"/>
						<line class="st0" x1="265.8" y1="0" x2="265.8" y2="5"/>
					</g>
					<g transform="translate(0, 8)">
						<text transform="matrix(1 0 0 1 -5.507 11.4)" class="st1 st2 st3">-5</text>
						<text transform="matrix(1 0 0 1 26.0484 11.4)" class="st4 st2 st3">0</text>
						<text transform="matrix(1 0 0 1 55.6057 11.4)" class="st4 st2 st3">5</text>
						<text transform="matrix(1 0 0 1 81.826 11.4)" class="st4 st2 st3">10</text>
						<text transform="matrix(1 0 0 1 111.3833 11.4)" class="st4 st2 st3">15</text>
						<text transform="matrix(1 0 0 1 140.9406 11.4)" class="st4 st2 st3">20</text>
						<text transform="matrix(1 0 0 1 170.4979 11.4)" class="st4 st2 st3">25</text>
						<text transform="matrix(1 0 0 1 200.0553 11.4)" class="st4 st2 st3">30</text>
						<text transform="matrix(1 0 0 1 229.6124 11.4)" class="st4 st2 st3">35</text>
						<text transform="matrix(1 0 0 1 259.1698 11.4)" class="st1 st2 st3">40</text>
					</g>
					<line class="st0" x1="-0.2" y1="0" x2="265.8" y2="0"/>
				</g>
			</g>
		</g>
	</g>
</g>
</svg>
